<svg width="433" height="420" viewBox="0 0 433 420" fill="none" xmlns="http://www.w3.org/2000/svg">
<path d="M409.372 296.736L258.92 406.029C235.56 423.827 197.461 423.827 171.041 406.029L21.9802 290.339C12.8029 283.387 7.24092 271.985 6.96282 262.808L5.57233 223.596L428.561 221.649L427.17 263.086C426.892 277.269 419.384 289.783 409.372 296.736Z" fill="url(#paint0_linear_15_106)"/>
<path d="M409.372 260.861L260.311 368.207C236.951 384.337 199.407 387.952 171.041 369.597L19.7554 250.293C0.566618 233.885 -0.823877 207.188 27.5422 187.443L173.544 94.0014C194.402 80.6527 233.335 72.5878 268.376 93.1672L408.538 189.946C434.679 208.578 436.348 242.228 409.372 260.861Z" fill="#073F6D"/>
<path d="M215.815 383.224C200.798 383.224 184.946 379.331 171.041 370.432L19.7555 250.849C10.5782 243.063 5.29431 232.773 5.57241 221.927H7.5191C7.241 232.217 12.2468 241.95 20.8678 249.181L172.154 368.207C193.845 382.39 227.217 387.396 259.199 371.266L409.372 261.973C420.774 254.186 427.17 242.506 427.17 230.548H429.117C429.117 243.341 422.443 255.299 410.484 263.642L260.033 372.657C248.075 379.053 232.501 383.224 215.815 383.224Z" fill="#23637C"/>
<path d="M369.872 197.45L386.836 222.479C388.782 225.26 387.948 228.319 386.001 229.988L343.452 260.301C341.506 261.691 340.393 263.36 340.393 265.863L335.109 311.471V314.53V353.742" stroke="#0A0A0F" stroke-width="5.56198" stroke-miterlimit="10"/>
<path d="M34.7579 177.983L17.7939 203.012C15.8472 205.793 16.6815 208.852 18.6282 210.521L61.1774 240.834C63.124 242.224 64.2364 243.893 64.2364 246.396L69.5203 292.004V295.063V334.275" stroke="#0A0A0F" stroke-width="5.56198" stroke-miterlimit="10"/>
<path d="M237.77 285.329L225.256 309.246C224.143 311.749 222.197 313.417 219.972 314.53L139.601 343.452C136.542 344.286 134.874 346.511 134.874 349.57V380.439" stroke="#0A0A0F" stroke-width="5.56198" stroke-miterlimit="10"/>
<path d="M408.805 220.532L258.354 329.825C234.994 347.624 196.894 347.624 170.475 329.825L21.4137 214.136C12.2364 207.184 6.67445 195.782 6.39635 186.604L5.00586 147.392L427.994 145.446L426.604 186.882C426.326 201.066 418.817 213.58 408.805 220.532Z" fill="url(#paint1_linear_15_106)"/>
<path d="M408.805 184.658L259.744 292.004C236.384 308.134 198.841 311.749 170.475 293.394L19.1889 174.09C2.81818e-05 157.682 -1.39047 130.985 26.9756 111.24L172.978 17.7983C193.835 4.44958 232.769 -3.61529 267.809 16.964L407.971 113.742C434.112 132.375 435.781 166.025 408.805 184.658Z" fill="url(#paint2_linear_15_106)"/>
<path d="M215.249 307.021C200.231 307.021 184.38 303.128 170.475 294.229L19.1889 174.646C10.0116 166.859 4.72772 156.57 5.00582 145.724H6.95251C6.67441 156.013 11.6802 165.747 20.3013 172.978L171.587 292.004C193.279 306.187 226.651 311.193 258.632 295.063L408.805 185.77C420.208 177.983 426.604 166.303 426.604 154.345H428.551C428.551 167.137 421.876 179.096 409.918 187.439L259.466 296.453C247.508 302.85 231.935 307.021 215.249 307.021Z" fill="url(#paint3_linear_15_106)"/>
<path d="M253.348 36.709C248.62 34.7623 242.78 34.7623 238.053 36.9871L216.917 50.3358C211.355 48.3891 199.119 48.6672 198.285 57.2883V60.9036C199.119 70.0808 222.201 71.1932 222.479 60.3474V58.1226L221.645 55.3416L241.668 43.1053C244.171 41.7148 246.952 40.6024 251.123 42.5491L332.328 78.4238C336.5 80.3705 350.683 78.7019 357.079 80.0924L360.972 80.3705L350.127 74.5304H339.281C337.334 74.5304 335.109 73.6961 335.109 73.6961L253.348 36.709Z" fill="#111121"/>
<path d="M258.91 291.17L176.037 261.413C174.924 261.135 174.09 259.466 174.09 259.466L163.8 240.556L157.126 239.999L168.25 259.188C169.362 263.36 170.753 266.975 176.315 268.365L251.958 295.063C253.904 295.897 255.573 297.566 255.573 300.347V329.825L255.295 333.719L261.413 329.825C262.803 326.488 262.247 323.151 262.525 318.979V297.288C262.247 294.785 260.857 292.282 258.91 291.17Z" fill="url(#paint4_linear_15_106)"/>
<path d="M137.659 39.4901L132.097 42.8272L131.541 72.0276L130.707 72.3057L52.8388 140.44C50.8921 142.109 49.5016 147.949 51.4483 150.452L80.6487 176.593L79.2582 180.764V184.101C81.2049 192.444 104.009 195.782 105.121 183.267L104.565 177.983C102.619 171.587 91.7727 170.197 86.7669 172.421L59.2351 148.505C57.8446 147.114 57.8446 144.611 60.0694 142.943L136.269 76.4772C138.215 74.8086 139.606 73.14 139.606 70.6371L140.44 41.1586L137.659 39.4901Z" fill="url(#paint5_linear_15_106)"/>
<path d="M379.605 154.067L362.085 130.706L364.309 128.76L365.144 122.363C363.753 112.63 342.34 108.737 339.281 120.973V126.535C340.949 132.375 349.848 134.322 354.576 133.487L372.096 154.067C372.931 155.457 372.931 157.126 371.262 158.238L329.547 187.717C327.044 189.942 325.376 192.444 325.376 197.45L320.648 243.615L321.482 250.011V287.832L327.322 283.383L327.879 282.548L328.435 240.277L332.606 196.06C332.884 193.835 333.719 192.444 334.831 191.888L376.824 162.688C380.439 160.463 381.274 156.848 379.605 154.067Z" fill="url(#paint6_linear_15_106)"/>
<path d="M251.958 103.453C235.828 92.3288 224.704 87.6011 206.349 87.8792C187.717 87.8792 164.635 95.666 147.114 109.571C129.594 123.476 126.813 133.487 129.316 154.067L164.635 152.676C164.356 127.925 189.942 112.908 211.633 120.695L219.698 124.866C194.391 144.611 167.694 162.132 167.416 183.267C165.747 202.734 188.829 219.698 215.527 219.698C244.727 219.698 280.602 200.509 279.767 172.699L293.394 177.149L319.536 158.516V154.623C319.814 154.623 264.472 112.352 251.958 103.453ZM205.793 181.877C203.29 172.143 237.496 139.606 237.496 139.606L247.23 146.558C251.958 150.451 256.963 156.848 256.963 161.297C257.52 175.202 235.55 190.22 219.976 189.942C212.468 189.942 206.906 186.048 205.793 181.877Z" fill="#111121"/>
<path d="M216.639 53.9511L239.443 40.0462C242.78 38.0995 246.952 37.8214 250.567 39.2119L333.719 75.0867C335.109 75.6429 336.778 76.199 338.446 76.199H349.849" stroke="#0A0A0F" stroke-width="5.56198" stroke-miterlimit="10"/>
<path d="M135.434 41.4367L134.878 70.6371C134.878 72.3057 134.044 73.4181 133.209 74.2524L55.6198 142.109C53.6731 143.777 53.395 147.67 55.6198 149.895L83.7077 175.202" stroke="#0A0A0F" stroke-width="5.56198" stroke-miterlimit="10"/>
<path d="M198.841 58.4007C199.397 63.6846 216.639 68.6904 222.479 59.7912V56.7321C220.811 48.9454 198.006 46.1644 198.841 58.4007Z" fill="url(#paint7_linear_15_106)"/>
<path d="M79.5364 180.764C79.5364 190.498 104.565 191.054 104.843 179.93C105.121 169.362 79.5364 167.415 79.5364 180.764Z" fill="url(#paint8_linear_15_106)"/>
<path d="M359.026 127.647L375.99 152.676C377.937 155.457 377.102 158.516 375.156 160.185L332.606 190.498C330.66 191.888 329.547 193.557 329.547 196.06L324.263 241.668V244.727V283.939" stroke="#0A0A0F" stroke-width="5.56198" stroke-miterlimit="10"/>
<path d="M160.185 239.165L154.067 238.887" stroke="#0A0A0F" stroke-width="5.56198" stroke-miterlimit="10"/>
<path d="M141.83 232.491V236.384C144.333 243.337 152.676 244.727 157.126 243.615L164.078 239.165C174.924 234.994 167.972 222.479 154.901 224.148C149.339 224.148 142.943 226.929 141.83 232.491Z" fill="url(#paint9_linear_15_106)"/>
<path d="M129.038 149.895L129.316 154.067L164.635 152.676V148.783L129.038 149.895Z" fill="#11111C"/>
<path d="M293.394 172.978L319.535 154.623L319.813 158.794L293.394 177.149V172.978Z" fill="#0B0C14"/>
<path d="M339.559 122.085V126.535C342.618 131.263 350.405 131.819 354.298 131.263L359.026 129.038C371.818 123.476 361.807 113.186 351.517 113.742C345.399 113.742 340.393 117.08 339.559 122.085Z" fill="url(#paint10_linear_15_106)"/>
<path d="M167.694 139.049C171.309 130.428 191.61 109.571 219.142 124.032L220.811 124.866L220.532 123.476C206.906 108.459 172.421 109.849 165.747 137.937L167.694 139.049Z" fill="#171721"/>
<path d="M236.662 135.99C228.319 145.168 206.349 164.078 205.793 175.202C216.639 159.629 233.325 144.611 237.496 139.327L247.23 146.28C243.615 142.108 240.277 140.162 237.496 135.156L236.662 135.99Z" fill="#0B0C14"/>
<path d="M279.489 162.966L293.394 172.977V177.149L279.767 167.972L279.489 162.966Z" fill="#0B0C14"/>
<path d="M168.25 183.545C169.64 199.397 189.941 216.083 216.917 216.083C234.715 216.083 271.146 205.515 279.767 177.705C279.211 203.012 246.396 220.254 217.751 219.698C193.835 219.698 167.137 207.74 167.415 186.326L168.25 183.545Z" fill="#171721"/>
<path d="M156.014 234.994L168.528 258.91C169.64 261.413 171.587 263.082 173.812 264.194L254.182 293.116C257.242 293.951 258.91 296.175 258.91 299.234V330.103" stroke="#0A0A0F" stroke-width="5.56198" stroke-miterlimit="10"/>
<defs>
<linearGradient id="paint0_linear_15_106" x1="217.067" y1="221.649" x2="217.067" y2="419.377" gradientUnits="userSpaceOnUse">
<stop stop-color="#053C69"/>
<stop offset="0.552885" stop-color="#085CA2"/>
<stop offset="1" stop-color="#053C69"/>
</linearGradient>
<linearGradient id="paint1_linear_15_106" x1="4.87515" y1="208.519" x2="427.994" y2="208.519" gradientUnits="userSpaceOnUse">
<stop stop-color="#0D8CF4"/>
<stop offset="0.524" stop-color="#2DA1FC"/>
<stop offset="1" stop-color="#0D83BA"/>
</linearGradient>
<linearGradient id="paint2_linear_15_106" x1="26.3527" y1="256.24" x2="408.527" y2="50.0578" gradientUnits="userSpaceOnUse">
<stop stop-color="#2DBAF4"/>
<stop offset="1" stop-color="#4DEAD3"/>
</linearGradient>
<linearGradient id="paint3_linear_15_106" x1="5.37013" y1="157.209" x2="427.716" y2="157.209" gradientUnits="userSpaceOnUse">
<stop stop-color="#8BDFFF"/>
<stop offset="1" stop-color="#64EFE8"/>
</linearGradient>
<linearGradient id="paint4_linear_15_106" x1="199.008" y1="59.0126" x2="262.358" y2="59.0126" gradientUnits="userSpaceOnUse">
<stop offset="0.1628" stop-color="#171721"/>
<stop offset="1" stop-color="#13141B"/>
</linearGradient>
<linearGradient id="paint5_linear_15_106" x1="49.8076" y1="96.3891" x2="140.357" y2="96.3891" gradientUnits="userSpaceOnUse">
<stop offset="0.003802" stop-color="#151622"/>
<stop offset="1" stop-color="#13141B"/>
</linearGradient>
<linearGradient id="paint6_linear_15_106" x1="320.648" y1="206.433" x2="381.274" y2="206.433" gradientUnits="userSpaceOnUse">
<stop offset="0.1348" stop-color="#181824"/>
<stop offset="1" stop-color="#13141B"/>
</linearGradient>
<linearGradient id="paint7_linear_15_106" x1="198.563" y1="58.4285" x2="222.507" y2="58.4285" gradientUnits="userSpaceOnUse">
<stop stop-color="#151521"/>
<stop offset="1" stop-color="#212535"/>
</linearGradient>
<linearGradient id="paint8_linear_15_106" x1="79.3139" y1="180.347" x2="104.816" y2="180.347" gradientUnits="userSpaceOnUse">
<stop stop-color="#151521"/>
<stop offset="1" stop-color="#13141B"/>
</linearGradient>
<linearGradient id="paint9_linear_15_106" x1="141.719" y1="234.743" x2="167.499" y2="234.743" gradientUnits="userSpaceOnUse">
<stop stop-color="#151521"/>
<stop offset="1" stop-color="#13141B"/>
</linearGradient>
<linearGradient id="paint10_linear_15_106" x1="339.281" y1="120.973" x2="365.144" y2="120.973" gradientUnits="userSpaceOnUse">
<stop stop-color="#151521"/>
<stop offset="1" stop-color="#13141B"/>
</linearGradient>
</defs>
</svg>
